<svg viewBox="0 0 64 64" xmlns="http://www.w3.org/2000/svg">
  <defs>
    <linearGradient id="mainGrad" x1="0%" y1="0%" x2="100%" y2="100%">
      <stop offset="0%" style="stop-color:#667EEA"/>
      <stop offset="50%" style="stop-color:#764BA2"/>
      <stop offset="100%" style="stop-color:#F093FB"/>
    </linearGradient>
    
    <linearGradient id="accentGrad" x1="0%" y1="0%" x2="100%" y2="100%">
      <stop offset="0%" style="stop-color:#4FACFE"/>
      <stop offset="100%" style="stop-color:#00F2FE"/>
    </linearGradient>
  </defs>
  
  <!-- Fond -->
  <circle cx="32" cy="32" r="28" fill="url(#mainGrad)" opacity="0.1"/>
  
  <!-- Réseau de nœuds -->
  <g opacity="0.8">
    <circle cx="20" cy="18" r="2.5" fill="url(#accentGrad)"/>
    <circle cx="44" cy="22" r="2" fill="url(#accentGrad)"/>
    <circle cx="26" cy="35" r="2.2" fill="url(#accentGrad)"/>
    <circle cx="46" cy="42" r="1.8" fill="url(#accentGrad)"/>
    <circle cx="18" cy="46" r="2" fill="url(#accentGrad)"/>
    
    <!-- Connexions -->
    <g stroke="url(#accentGrad)" stroke-width="1" fill="none" opacity="0.5">
      <line x1="20" y1="18" x2="44" y2="22"/>
      <line x1="44" y1="22" x2="26" y2="35"/>
      <line x1="26" y1="35" x2="46" y2="42"/>
      <line x1="18" y1="46" x2="26" y2="35"/>
    </g>
  </g>
  
  <!-- Forme 3D centrale -->
  <g transform="translate(32, 32)">
    <path d="M-6 -4 L0 -8 L6 -4 L4 2 L-4 2 Z" fill="url(#mainGrad)" opacity="0.7"/>
    <path d="M-6 -4 L-4 2 L-2 6 L-4 0 Z" fill="url(#mainGrad)" opacity="0.9"/>
    <path d="M6 -4 L4 2 L2 6 L4 0 Z" fill="url(#accentGrad)" opacity="1"/>
    <path d="M-2 6 L2 6 L4 0 L-4 0 Z" fill="url(#accentGrad)" opacity="0.8"/>
  </g>
  
  <!-- Logo N -->
  <g transform="translate(32, 32)" opacity="0.9">
    <path d="M-3 -4 L-3 4 L-2 4 L2 -2 L2 4 L3 4 L3 -4 L2 -4 L-2 2 L-2 -4 Z" fill="white"/>
  </g>
  
  <!-- Points lumineux -->
  <circle cx="32" cy="12" r="0.5" fill="white" opacity="0.7"/>
  <circle cx="52" cy="32" r="0.5" fill="white" opacity="0.7"/>
  <circle cx="32" cy="52" r="0.5" fill="white" opacity="0.7"/>
  <circle cx="12" cy="32" r="0.5" fill="white" opacity="0.7"/>
</svg>